<svg width="58" height="58" viewBox="0 0 58 58" fill="none" xmlns="http://www.w3.org/2000/svg">
<g clip-path="url(#clip0)">
<path d="M33.7438 9.30408V6.30116H34.2661C34.6958 6.30116 35.0443 5.95266 35.0443 5.52296V3.77786C35.0445 1.76688 33.4083 0.130859 31.3974 0.130859H26.0789C24.0679 0.130859 22.4319 1.76688 22.4319 3.77786V5.52309C22.4319 5.95279 22.7804 6.30129 23.2101 6.30129H23.7328V9.30421C20.1671 10.0545 16.8874 11.5895 14.0826 13.7195L12.298 11.9348C11.6723 11.3094 10.6543 11.3094 10.0286 11.9348L7.82415 14.1393C7.52104 14.4424 7.35412 14.8453 7.35412 15.274C7.35412 15.7026 7.52104 16.1056 7.82415 16.4087L9.58027 18.1648C6.37178 22.2811 4.45755 27.4534 4.45755 33.0647C4.45755 46.4531 15.3498 57.3453 28.7382 57.3453C42.1267 57.3453 53.0188 46.4531 53.0188 33.0647C53.0188 21.3919 44.7387 11.6176 33.7438 9.30408ZM23.9883 3.77786C23.9883 2.6251 24.9261 1.68725 26.0789 1.68725H31.3974C32.5502 1.68725 33.4881 2.6251 33.4881 3.77786V4.7449H23.9883V3.77786ZM25.2891 6.35784H32.1876V9.03015C31.0605 8.8692 29.9092 8.78398 28.7382 8.78398C27.5674 8.78398 26.4162 8.86907 25.2891 9.03002V6.35784ZM8.92464 15.3082C8.92075 15.3043 8.9105 15.2941 8.9105 15.274C8.9105 15.254 8.92088 15.2438 8.92464 15.2399L11.1291 13.0354C11.1481 13.0164 11.1788 13.0164 11.1975 13.0354L12.8663 14.7042C12.0553 15.4062 11.2924 16.162 10.5804 16.964L8.92464 15.3082ZM28.7382 55.789C16.208 55.789 6.01394 45.5949 6.01394 33.0647C6.01394 20.5344 16.208 10.3405 28.7382 10.3405C41.2683 10.3405 51.4624 20.5346 51.4624 33.0648C51.4624 45.595 41.2683 55.789 28.7382 55.789Z" fill="#224B6F"/>
<path d="M28.7382 14.1306C18.2978 14.1306 9.80411 22.6245 9.80411 33.0647C9.80411 43.505 18.298 51.9988 28.7382 51.9988C39.1786 51.9988 47.6723 43.505 47.6723 33.0647C47.6723 22.6245 39.1786 14.1306 28.7382 14.1306ZM28.7382 50.4426C19.1561 50.4426 11.3605 42.647 11.3605 33.0648C11.3605 23.4827 19.1561 15.687 28.7382 15.687C38.3204 15.687 46.1159 23.4826 46.1159 33.0647C46.1159 42.6469 38.3204 50.4426 28.7382 50.4426Z" fill="#224B6F"/>
<path d="M29.5006 22.9662C29.4265 22.604 29.1079 22.344 28.7382 22.344C28.3686 22.344 28.0499 22.604 27.9758 22.9662C27.9758 22.9662 25.925 32.7042 25.925 33.0648C25.925 34.6159 27.187 35.8778 28.7381 35.8778C30.2892 35.8778 31.551 34.616 31.551 33.0648C31.5511 32.7042 29.5006 22.9662 29.5006 22.9662ZM28.7382 27.0034L29.4202 30.3358C29.2016 30.2812 28.9734 30.2517 28.7382 30.2517C28.5031 30.2517 28.2747 30.2812 28.0561 30.3358L28.7382 27.0034ZM28.7382 34.3214C28.0452 34.3214 27.4816 33.7576 27.4816 33.0648C27.4816 32.3719 28.0454 31.8081 28.7382 31.8081C29.4311 31.8081 29.9947 32.3719 29.9947 33.0648C29.9947 33.7576 29.4309 34.3214 28.7382 34.3214Z" fill="#224B6F"/>
<path d="M28.7381 45.1167C28.3084 45.1167 27.9599 45.4652 27.9599 45.8949V48.9084C27.9599 49.3381 28.3084 49.6866 28.7381 49.6866C29.1679 49.6866 29.5163 49.3381 29.5163 48.9084V45.8949C29.5163 45.4652 29.1679 45.1167 28.7381 45.1167Z" fill="#224B6F"/>
<path d="M28.7381 21.0126C29.1679 21.0126 29.5163 20.6641 29.5163 20.2344V17.2208C29.5163 16.7911 29.1679 16.4426 28.7381 16.4426C28.3084 16.4426 27.9599 16.7911 27.9599 17.2208V20.2344C27.9599 20.6641 28.3084 21.0126 28.7381 21.0126Z" fill="#224B6F"/>
<path d="M19.116 41.5868L16.9851 43.7177C16.6812 44.0216 16.6812 44.5144 16.9851 44.8182C17.1371 44.9701 17.3361 45.0461 17.5354 45.0461C17.7346 45.0461 17.9337 44.9701 18.0857 44.8182L20.2166 42.6873C20.5205 42.3834 20.5205 41.8907 20.2166 41.5868C19.9125 41.2829 19.4198 41.2829 19.116 41.5868Z" fill="#224B6F"/>
<path d="M37.8112 24.7704C38.0177 24.7704 38.2156 24.6883 38.3616 24.5422L40.4914 22.4113C40.7952 22.1073 40.795 21.6145 40.491 21.3108C40.1871 21.007 39.6943 21.007 39.3905 21.3111L37.2824 23.4205C37.1286 23.5626 37.0323 23.7661 37.0323 23.9922C37.0323 24.4219 37.3814 24.7704 37.8112 24.7704Z" fill="#224B6F"/>
<path d="M15.9074 32.2871H12.8938C12.4641 32.2871 12.1156 32.6356 12.1156 33.0653C12.1156 33.495 12.4641 33.8435 12.8938 33.8435H15.9074C16.3371 33.8435 16.6856 33.495 16.6856 33.0653C16.6856 32.6356 16.3371 32.2871 15.9074 32.2871Z" fill="#224B6F"/>
<path d="M44.5813 32.2859H41.5688C41.1391 32.2859 40.7906 32.6344 40.7906 33.0641C40.7906 33.4938 41.1391 33.8423 41.5688 33.8423H44.5813C45.011 33.8423 45.3595 33.4938 45.3595 33.0641C45.3595 32.6344 45.011 32.2859 44.5813 32.2859Z" fill="#224B6F"/>
<path d="M19.1147 24.5422C19.2606 24.6882 19.4587 24.7703 19.6651 24.7703H19.6663C20.096 24.7703 20.444 24.4218 20.444 23.9921C20.444 23.771 20.3518 23.5715 20.2035 23.4299L18.0858 21.3111C17.7822 21.0071 17.2892 21.007 16.9853 21.3108C16.6813 21.6146 16.6811 22.1073 16.985 22.4113L19.1147 24.5422Z" fill="#224B6F"/>
<path d="M38.3604 41.5868C38.0565 41.283 37.5636 41.2828 37.2599 41.5868C36.9558 41.8907 36.9558 42.3835 37.2597 42.6873L39.3907 44.8183C39.5427 44.9703 39.7418 45.0462 39.941 45.0462C40.1401 45.0462 40.3393 44.9702 40.4912 44.8183C40.7952 44.5144 40.7952 44.0217 40.4913 43.7178L38.3604 41.5868Z" fill="#224B6F"/>
</g>
<defs>
<clipPath id="clip0">
<rect width="57.2145" height="57.2145" fill="white" transform="translate(0.13092 0.130859)"/>
</clipPath>
</defs>
</svg>
