<svg width="52" height="51" viewBox="0 0 52 51" fill="none" xmlns="http://www.w3.org/2000/svg">
<g clip-path="url(#clip0)">
<path d="M38.4986 0.130859H13.1783C11.3505 0.130859 9.86335 1.61798 9.86335 3.44596V47.4287C9.86335 49.2567 11.3505 50.7438 13.1784 50.7438H38.4987C40.3267 50.7438 41.8138 49.2567 41.8138 47.4287V3.44596C41.8137 1.61798 40.3266 0.130859 38.4986 0.130859ZM40.1268 47.4287C40.1268 48.3264 39.3964 49.0569 38.4986 49.0569H13.1783C12.2806 49.0569 11.5501 48.3265 11.5501 47.4287V3.44596C11.5501 2.54822 12.2805 1.81771 13.1783 1.81771H38.4986C39.3963 1.81771 40.1268 2.54811 40.1268 3.44596V47.4287Z" fill="#224B6F"/>
<path d="M38.0018 7.81787H13.675C13.2092 7.81787 12.8316 8.1955 12.8316 8.66129V42.2132C12.8316 42.679 13.2092 43.0567 13.675 43.0567H38.002C38.4679 43.0567 38.8454 42.679 38.8454 42.2132V8.66129C38.8453 8.1955 38.4677 7.81787 38.0018 7.81787ZM14.5185 23.6362L22.6831 9.50472H24.975L14.5185 27.6032V23.6362ZM20.7349 9.50472L14.5185 20.2643V9.50472H20.7349ZM14.5185 30.9751L26.9231 9.50472H37.1584V27.3345L29.0494 41.3698H14.5185V30.9751ZM30.9976 41.3698L37.1584 30.7065V41.3698H30.9976Z" fill="#224B6F"/>
<path d="M22.8108 5.73592H28.8661C29.332 5.73592 29.7096 5.35829 29.7096 4.8925C29.7096 4.4267 29.332 4.04907 28.8661 4.04907H22.8108C22.345 4.04907 21.9674 4.4267 21.9674 4.8925C21.9674 5.35829 22.345 5.73592 22.8108 5.73592Z" fill="#224B6F"/>
<path d="M25.8384 43.7061C24.6532 43.7061 23.689 44.6703 23.689 45.8555C23.689 47.0408 24.6533 48.005 25.8384 48.005C27.0237 48.005 27.9879 47.0408 27.9879 45.8555C27.9879 44.6703 27.0237 43.7061 25.8384 43.7061ZM25.8384 46.3182C25.5833 46.3182 25.3758 46.1107 25.3758 45.8555C25.3758 45.6004 25.5834 45.3929 25.8384 45.3929C26.0935 45.3929 26.3011 45.6004 26.3011 45.8555C26.3011 46.1107 26.0936 46.3182 25.8384 46.3182Z" fill="#224B6F"/>
</g>
<defs>
<clipPath id="clip0">
<rect width="50.6128" height="50.6128" fill="white" transform="translate(0.532043 0.130859)"/>
</clipPath>
</defs>
</svg>
