<svg width="63" height="63" viewBox="0 0 63 63" fill="none" xmlns="http://www.w3.org/2000/svg">
<g clip-path="url(#clip0)">
<path d="M25.4037 0.428955C19.1918 0.428955 14.1625 5.46223 14.1625 11.6717C14.1625 17.8811 19.1958 22.9136 25.4037 22.9136C31.6108 22.9136 36.645 17.8803 36.645 11.6717C36.645 5.46223 31.6133 0.428955 25.4037 0.428955ZM25.4037 21.5406C19.9534 21.5406 15.5323 17.1211 15.5323 11.6701C15.5323 6.21822 19.9502 1.79874 25.4037 1.79874C30.8564 1.79874 35.2744 6.21742 35.2744 11.6701C35.2744 17.1211 30.8572 21.5406 25.4037 21.5406Z" fill="#224B6F"/>
<path d="M28.9604 11.4804C28.4181 11.1084 27.3905 10.7107 25.8809 10.2865V5.52319C26.78 5.55693 27.4355 5.90239 27.8453 6.56117C28.0654 6.91949 28.1996 7.34609 28.2454 7.84179H29.9566C29.9229 6.73551 29.5605 5.84856 28.868 5.17451C28.1715 4.50127 27.176 4.11966 25.8809 4.02807V2.74585H24.9498V4.04574C23.6378 4.0602 22.6223 4.46271 21.8928 5.25887C21.1658 6.05423 20.8042 6.94761 20.8042 7.9382C20.8042 9.04688 21.1425 9.91455 21.8157 10.5396C22.489 11.1646 23.535 11.6129 24.949 11.8788V17.2078C23.8459 17.1162 23.0907 16.7032 22.6842 15.9657C22.4528 15.5552 22.3154 14.9036 22.2584 14.0103H20.5287C20.5287 15.1326 20.7167 16.0228 21.0854 16.6799C21.7603 17.8995 23.0538 18.5711 24.9498 18.6949V20.5925H25.8809V18.6949C27.0611 18.5639 27.9618 18.2972 28.5892 17.8939C29.7148 17.1636 30.2764 15.932 30.2764 14.1966C30.2788 12.9988 29.8385 12.0917 28.9604 11.4804ZM24.9498 10.1001C24.2195 9.95793 23.6427 9.70245 23.208 9.33851C22.7782 8.97217 22.5613 8.46844 22.5613 7.8217C22.5613 7.28664 22.7469 6.77488 23.1076 6.28722C23.4731 5.79715 24.0853 5.53845 24.9466 5.50471L24.9498 10.1001ZM28.1867 16.0364C27.7649 16.8005 26.9953 17.2078 25.8801 17.2576V12.1142C26.6948 12.3352 27.2716 12.5698 27.6179 12.818C28.2189 13.2422 28.5185 13.8616 28.5185 14.6755C28.5185 15.1937 28.4093 15.646 28.1867 16.0364Z" fill="#224B6F"/>
<path d="M17.6701 28.6579L18.2968 30.4254C23.0674 28.7382 28.3402 28.7198 33.1389 30.3755L33.7511 28.6025C28.5523 26.8101 22.8401 26.8261 17.6701 28.6579Z" fill="#224B6F"/>
<path d="M60.5222 39.6281L60.4724 38.8063L59.6505 38.7508C58.9483 38.7042 58.0895 38.734 57.3022 38.7637C56.8643 38.7814 56.3774 38.8039 56.0304 38.7966C54.2123 35.3902 51.7 32.8547 48.5499 31.2552C48.676 29.5086 48.9724 27.8705 49.9181 27.0896L51.737 25.5904L49.3854 25.4289C46.0255 25.2128 43.2739 27.292 41.6357 28.9607C38.1715 25.9311 32.1515 24.0833 25.5909 24.0833C25.5765 24.0833 25.5596 24.0833 25.5459 24.0833C19.0721 24.0921 13.1566 25.862 8.7885 29.0217L7.91519 28.4288C6.8314 27.6897 5.63191 27.6278 4.62203 28.2713C3.04093 29.2812 2.38535 31.636 2.66333 33.3327C2.81517 34.251 3.22411 34.9877 3.83309 35.469C1.55061 39.6531 1.60926 46.4096 5.18763 49.7598C5.71145 54.1616 6.55181 58.6164 8.91704 61.6813L9.19663 62.0437H18.0662L17.9305 60.9888C17.7923 59.9075 17.6364 58.7128 17.6565 57.4298C21.7571 58.2324 26.5446 58.4814 31.3425 58.1392C32.0656 59.3467 32.8103 60.5927 33.715 61.6998L33.9962 62.0445H41.7072L42.7685 61.9513L42.6215 60.8852C42.3982 59.2559 42.1692 57.5792 42.4624 55.9797C44.7867 55.4165 53.2819 53.0216 59.1685 46.89H59.1701C60.5849 45.4158 60.7367 43.0145 60.5222 39.6281ZM57.8195 45.5877C51.3794 52.2913 41.598 54.2515 41.5032 54.2708L40.9207 54.3841L40.7713 54.9561C40.3045 56.7156 40.4186 58.438 40.6379 60.1678H34.8944C34.189 59.243 33.576 58.2179 32.93 57.1398L32.35 56.1765L31.7659 56.2207C26.5422 56.6513 21.2887 56.3452 16.9824 55.3667L15.9436 55.1321L15.8416 56.195C15.7026 57.6395 15.8006 58.99 15.9332 60.1702H10.1294C8.18353 57.3856 7.47573 53.2561 7.00654 49.1869L6.96396 48.8206L6.68036 48.5804C3.41692 45.8255 3.53985 39.0489 5.93319 35.6353L6.71973 34.5145L5.39089 34.1868C4.91608 34.0695 4.62284 33.6774 4.51598 33.0291C4.4027 32.3638 4.53125 31.5934 4.79798 30.9571C4.7321 31.2495 4.73772 31.5299 4.81967 31.7975C4.93938 32.1951 5.34108 32.8788 6.65867 32.9792L7.09974 33.0162L7.40744 32.694C11.4928 28.4272 18.1008 25.9712 25.5427 25.964C25.5588 25.964 25.5732 25.964 25.5861 25.964C32.1323 25.964 38.0349 27.8721 40.9946 30.9507L41.708 31.6898L42.3789 30.9169C43.3703 29.7793 45.1772 28.0512 47.4042 27.4808C46.8836 28.7325 46.7133 30.2565 46.6321 31.7782L46.596 32.4137L47.1752 32.6796C50.4025 34.1643 52.8288 36.5937 54.5931 40.1126L54.8003 40.5288L55.2567 40.6147C55.7074 40.7023 56.3557 40.6822 57.364 40.6444C57.7946 40.6292 58.2542 40.6107 58.6904 40.6091C58.7909 42.7156 58.692 44.6791 57.8195 45.5877Z" fill="#224B6F"/>
<path d="M48.4807 39.8596C49.3575 39.8596 50.0683 39.1488 50.0683 38.2721C50.0683 37.3953 49.3575 36.6846 48.4807 36.6846C47.604 36.6846 46.8932 37.3953 46.8932 38.2721C46.8932 39.1488 47.604 39.8596 48.4807 39.8596Z" fill="#224B6F"/>
</g>
<defs>
<clipPath id="clip0">
<rect width="61.6156" height="61.6156" fill="white" transform="translate(0.632324 0.428955)"/>
</clipPath>
</defs>
</svg>
